<svg xmlns="http://www.w3.org/2000/svg" xmlns:xlink="http://www.w3.org/1999/xlink" width="40" zoomAndPan="magnify" viewBox="0 0 30 30.000001" height="40" preserveAspectRatio="xMidYMid meet" version="1.0"><defs><clipPath id="1e852e76f6"><path d="M 14 0.4375 L 16 0.4375 L 16 5 L 14 5 Z M 14 0.4375 " clip-rule="nonzero"/></clipPath><clipPath id="e0073ac712"><path d="M 14 24 L 16 24 L 16 28.746094 L 14 28.746094 Z M 14 24 " clip-rule="nonzero"/></clipPath><clipPath id="fe40fb9038"><path d="M 0.921875 13 L 5 13 L 5 16 L 0.921875 16 Z M 0.921875 13 " clip-rule="nonzero"/></clipPath><clipPath id="7a95e380d8"><path d="M 25 13 L 29.226562 13 L 29.226562 16 L 25 16 Z M 25 13 " clip-rule="nonzero"/></clipPath></defs><g clip-path="url(#1e852e76f6)"><path fill="#050b37" d="M 14.367188 1.066406 C 14.367188 0.898438 14.433594 0.738281 14.550781 0.621094 C 14.667969 0.503906 14.828125 0.4375 14.996094 0.4375 C 15.160156 0.4375 15.320312 0.503906 15.4375 0.621094 C 15.554688 0.738281 15.621094 0.898438 15.621094 1.066406 L 15.621094 3.804688 C 15.621094 3.972656 15.554688 4.132812 15.4375 4.25 C 15.320312 4.367188 15.160156 4.433594 14.996094 4.433594 C 14.828125 4.433594 14.667969 4.367188 14.550781 4.25 C 14.433594 4.132812 14.367188 3.972656 14.367188 3.804688 Z M 14.367188 1.066406 " fill-opacity="1" fill-rule="nonzero"/></g><g clip-path="url(#e0073ac712)"><path fill="#050b37" d="M 14.367188 25.21875 C 14.367188 25.050781 14.433594 24.890625 14.550781 24.773438 C 14.667969 24.65625 14.828125 24.589844 14.996094 24.589844 C 15.160156 24.589844 15.320312 24.65625 15.4375 24.773438 C 15.554688 24.890625 15.621094 25.050781 15.621094 25.21875 L 15.621094 27.957031 C 15.621094 28.125 15.554688 28.285156 15.4375 28.402344 C 15.320312 28.519531 15.160156 28.585938 14.996094 28.585938 C 14.828125 28.585938 14.667969 28.519531 14.550781 28.402344 C 14.433594 28.285156 14.367188 28.125 14.367188 27.957031 Z M 14.367188 25.21875 " fill-opacity="1" fill-rule="nonzero"/></g><g clip-path="url(#fe40fb9038)"><path fill="#050b37" d="M 1.546875 15.136719 C 1.382812 15.136719 1.222656 15.070312 1.105469 14.953125 C 0.988281 14.835938 0.921875 14.679688 0.921875 14.511719 C 0.921875 14.34375 0.988281 14.1875 1.105469 14.066406 C 1.222656 13.949219 1.382812 13.886719 1.546875 13.886719 L 4.289062 13.886719 C 4.457031 13.886719 4.613281 13.949219 4.730469 14.066406 C 4.851562 14.1875 4.917969 14.34375 4.917969 14.511719 C 4.917969 14.679688 4.851562 14.835938 4.730469 14.953125 C 4.613281 15.070312 4.457031 15.136719 4.289062 15.136719 Z M 1.546875 15.136719 " fill-opacity="1" fill-rule="nonzero"/></g><g clip-path="url(#7a95e380d8)"><path fill="#050b37" d="M 25.703125 15.136719 C 25.535156 15.136719 25.375 15.070312 25.257812 14.953125 C 25.140625 14.835938 25.074219 14.679688 25.074219 14.511719 C 25.074219 14.34375 25.140625 14.1875 25.257812 14.066406 C 25.375 13.949219 25.535156 13.886719 25.703125 13.886719 L 28.441406 13.886719 C 28.609375 13.886719 28.769531 13.949219 28.886719 14.066406 C 29.003906 14.1875 29.070312 14.34375 29.070312 14.511719 C 29.070312 14.679688 29.003906 14.835938 28.886719 14.953125 C 28.769531 15.070312 28.609375 15.136719 28.441406 15.136719 Z M 25.703125 15.136719 " fill-opacity="1" fill-rule="nonzero"/></g><path fill="#050b37" d="M 5.042969 5.445312 C 4.925781 5.328125 4.859375 5.167969 4.859375 5.003906 C 4.859375 4.835938 4.925781 4.675781 5.042969 4.558594 C 5.160156 4.441406 5.320312 4.375 5.488281 4.375 C 5.652344 4.375 5.8125 4.441406 5.929688 4.558594 L 7.867188 6.5 C 7.984375 6.617188 8.050781 6.773438 8.050781 6.941406 C 8.050781 7.109375 7.984375 7.265625 7.867188 7.382812 C 7.75 7.503906 7.589844 7.566406 7.425781 7.566406 C 7.257812 7.566406 7.097656 7.503906 6.980469 7.382812 Z M 5.042969 5.445312 " fill-opacity="1" fill-rule="nonzero"/><path fill="#050b37" d="M 22.121094 22.523438 C 22.003906 22.40625 21.9375 22.25 21.9375 22.082031 C 21.9375 21.914062 22.003906 21.757812 22.121094 21.636719 C 22.238281 21.519531 22.398438 21.453125 22.566406 21.453125 C 22.730469 21.453125 22.890625 21.519531 23.007812 21.636719 L 24.949219 23.578125 C 25.066406 23.695312 25.132812 23.855469 25.132812 24.019531 C 25.132812 24.1875 25.066406 24.34375 24.949219 24.464844 C 24.828125 24.582031 24.671875 24.648438 24.503906 24.648438 C 24.335938 24.648438 24.179688 24.582031 24.0625 24.464844 Z M 22.121094 22.523438 " fill-opacity="1" fill-rule="nonzero"/><path fill="#050b37" d="M 5.929688 24.464844 C 5.8125 24.582031 5.652344 24.648438 5.488281 24.648438 C 5.320312 24.648438 5.160156 24.582031 5.042969 24.464844 C 4.925781 24.34375 4.859375 24.1875 4.859375 24.019531 C 4.859375 23.855469 4.925781 23.695312 5.042969 23.578125 L 6.980469 21.636719 C 7.097656 21.519531 7.257812 21.453125 7.425781 21.453125 C 7.589844 21.453125 7.75 21.519531 7.867188 21.636719 C 7.984375 21.757812 8.050781 21.914062 8.050781 22.082031 C 8.050781 22.25 7.984375 22.40625 7.867188 22.523438 Z M 5.929688 24.464844 " fill-opacity="1" fill-rule="nonzero"/><path fill="#050b37" d="M 24.949219 5.445312 L 23.007812 7.382812 C 22.890625 7.503906 22.730469 7.566406 22.566406 7.566406 C 22.398438 7.566406 22.238281 7.503906 22.121094 7.382812 C 22.003906 7.265625 21.9375 7.109375 21.9375 6.941406 C 21.9375 6.773438 22.003906 6.617188 22.121094 6.5 L 24.0625 4.558594 C 24.179688 4.441406 24.335938 4.375 24.503906 4.375 C 24.671875 4.375 24.828125 4.441406 24.949219 4.558594 C 25.066406 4.675781 25.132812 4.835938 25.132812 5.003906 C 25.132812 5.167969 25.066406 5.328125 24.949219 5.445312 Z M 24.949219 5.445312 " fill-opacity="1" fill-rule="nonzero"/><path fill="#050b37" d="M 6.734375 14.511719 C 6.734375 13.40625 6.953125 12.3125 7.382812 11.296875 C 7.800781 10.316406 8.402344 9.425781 9.15625 8.671875 C 9.90625 7.917969 10.800781 7.316406 11.78125 6.898438 C 12.796875 6.46875 13.890625 6.25 14.996094 6.25 C 16.101562 6.25 17.191406 6.46875 18.210938 6.898438 C 19.191406 7.316406 20.082031 7.917969 20.835938 8.671875 C 21.589844 9.425781 22.191406 10.316406 22.605469 11.296875 C 23.035156 12.3125 23.257812 13.40625 23.257812 14.511719 C 23.257812 15.617188 23.035156 16.710938 22.605469 17.726562 C 22.191406 18.707031 21.589844 19.597656 20.835938 20.351562 C 20.082031 21.105469 19.191406 21.707031 18.210938 22.125 C 17.191406 22.554688 16.101562 22.773438 14.996094 22.773438 C 13.890625 22.773438 12.796875 22.554688 11.78125 22.125 C 10.800781 21.707031 9.90625 21.105469 9.15625 20.351562 C 8.402344 19.597656 7.800781 18.707031 7.382812 17.726562 C 6.953125 16.710938 6.734375 15.617188 6.734375 14.511719 Z M 7.988281 14.511719 C 7.988281 13.574219 8.171875 12.648438 8.539062 11.785156 C 8.890625 10.953125 9.402344 10.195312 10.039062 9.558594 C 10.679688 8.917969 11.4375 8.40625 12.269531 8.054688 C 13.132812 7.691406 14.058594 7.503906 14.996094 7.503906 C 15.933594 7.503906 16.859375 7.691406 17.722656 8.054688 C 18.554688 8.40625 19.3125 8.917969 19.949219 9.558594 C 20.589844 10.195312 21.101562 10.953125 21.453125 11.785156 C 21.816406 12.648438 22.003906 13.574219 22.003906 14.511719 C 22.003906 15.449219 21.816406 16.375 21.453125 17.238281 C 21.101562 18.070312 20.589844 18.828125 19.949219 19.464844 C 19.3125 20.105469 18.554688 20.617188 17.722656 20.96875 C 16.859375 21.332031 15.933594 21.519531 14.996094 21.519531 C 14.058594 21.519531 13.132812 21.332031 12.269531 20.96875 C 11.4375 20.617188 10.679688 20.105469 10.039062 19.464844 C 9.402344 18.828125 8.890625 18.070312 8.539062 17.238281 C 8.171875 16.375 7.988281 15.449219 7.988281 14.511719 Z M 7.988281 14.511719 " fill-opacity="1" fill-rule="evenodd"/></svg>